<svg width="72" height="153" viewBox="0 0 72 153" fill="none" xmlns="http://www.w3.org/2000/svg">
<path d="M122.467 56.6687L122.488 56.6703V96.9227V96.9529L122.492 96.979C122.491 96.9784 122.492 96.9785 122.492 96.9793L122.492 96.9804L122.492 96.9816L122.493 96.9931C122.494 97.008 122.495 97.0342 122.496 97.071C122.497 97.1447 122.494 97.2611 122.477 97.415C122.444 97.7225 122.355 98.1818 122.126 98.7531C121.67 99.892 120.648 101.502 118.357 103.246L53.4745 152.5H1.48292C22.148 136.777 73.4495 97.7635 100.917 76.8884L101.441 76.4904L100.917 76.0923C93.1145 70.1604 83.3927 62.7683 72.9968 54.8636C46.7949 34.9407 16.3111 11.762 1.48492 0.5H53.4744L118.357 49.7871L118.358 49.7878C120.65 51.5197 121.665 53.114 122.115 54.2393C122.341 54.8038 122.428 55.257 122.459 55.5599C122.475 55.7116 122.477 55.8261 122.475 55.8984C122.475 55.9346 122.473 55.9602 122.472 55.9747L122.471 55.9855L122.471 55.9866L122.471 55.9876L122.471 55.988L122.471 55.9882L122.467 56.016V56.0484V56.6687Z" stroke="white"/>
</svg>
