<?xml version="1.0" encoding="UTF-8"?><svg width="154" height="96" viewBox="0 0 154 96" fill="none" xmlns="http://www.w3.org/2000/svg">
<path d="M0 3C19.303 3 19.303 23 38.606 23C57.908 23 57.908 3 77.21 3C96.515 3 96.515 23 115.82 23C135.125 23 135.125 3 154.43 3" stroke="#005E85" stroke-width="5" stroke-miterlimit="10"/>
<path d="M0 26.002C19.303 26.002 19.303 46.002 38.606 46.002C57.908 46.002 57.908 26.002 77.21 26.002C96.515 26.002 96.515 46.002 115.82 46.002C135.125 46.002 135.125 26.002 154.43 26.002" stroke="#005E85" stroke-width="5" stroke-miterlimit="10"/>
<path d="M0 50.0781C19.303 50.0781 19.303 70.0781 38.606 70.0781C57.908 70.0781 57.908 50.0781 77.21 50.0781C96.515 50.0781 96.515 70.0781 115.82 70.0781C135.125 70.0781 135.125 50.0781 154.43 50.0781" stroke="#005E85" stroke-width="5" stroke-miterlimit="10"/>
<path d="M0 73.0801C19.303 73.0801 19.303 93.0801 38.606 93.0801C57.908 93.0801 57.908 73.0801 77.21 73.0801C96.515 73.0801 96.515 93.0801 115.82 93.0801C135.125 93.0801 135.125 73.0801 154.43 73.0801" stroke="#005E85" stroke-width="5" stroke-miterlimit="10"/>
</svg>
