<svg id="Capa_1" data-name="Capa 1" xmlns="http://www.w3.org/2000/svg" viewBox="0 0 1940 700"><defs><style>.cls-1{fill:#fff;}</style></defs><path class="cls-1" d="M1643.33,521.81c62-4.17,114.28-27.13,156.42-68.87Q1870,383.36,1870,277.22c0-64.5-18.41-119.82-57.75-163.78a7,7,0,0,0-4.94-2.23,6.4,6.4,0,0,0-6.41,6.41,6.15,6.15,0,0,0,.24,1.77c29,78,12.12,156.38-39.09,177.12-35.88,14.52-79.34-3-113.65-41a6.86,6.86,0,0,0-9.54-.08,6.58,6.58,0,0,0-.65,8.56l.71.83c29.64,33.44,44.77,74.87,44.77,123.53s-14.92,89.36-44.74,122.39a6.4,6.4,0,0,0,4.38,11.07Z"/><path class="cls-1" d="M1163.34,500.08q-7.75-11.25-20.63-33.54-20.43-35.43-31.71-49.66t-23.09-22.49c13.39-5.48,26-13.79,33.14-24.89s10.75-24.31,10.75-39.55q0-33.52-21.94-53.21c-14.62-13.11-36.71-19.68-61.6-19.68H986.58V518.82H1025V404.9h2.73q17.29,0,24.62,4.21t16.41,13.75q9.07,9.52,20,25.66l11.8,20.44,10.91,19.12,6.87,10.3c1,1.51,1.75,2.57,2.11,3.2l10.73,17.24h45.24ZM1073,363.44c-6,3-19.53,4.45-35.8,4.45H1025V292.57h9.63c15.75,0,29.33,1.25,36.13,3.75a30.47,30.47,0,0,1,15.82,12.9,38.21,38.21,0,0,1,5.62,20.41,40.78,40.78,0,0,1-5.05,20.41A32.15,32.15,0,0,1,1073,363.44Z"/><path class="cls-1" d="M1208.33,257.06h131.3V294h-92.41v66h92.41v36.83h-92.41v122h-38.89Z"/><path class="cls-1" d="M907.92,291.72q-37.95-38.4-95-38.41t-94.4,38.41q-37.34,38.43-37.33,97.06,0,57.17,37.07,95.1T811,521.82q58.29,0,96.6-37.94t38.3-95.83Q945.87,330.11,907.92,291.72Zm-28.6,167.19q-26.48,28.77-66.06,28.77-39.4,0-65.63-28.21t-26.22-70.69q0-43.78,26.14-72t66.73-28.2q38.57,0,65,28.47t26.48,70.24Q905.8,430.15,879.32,458.91Z"/><path class="cls-1" d="M1601.74,291.72q-38-38.4-95-38.41t-94.39,38.41Q1375,330.15,1375,388.78q0,57.17,37.07,95.1t92.72,37.94q58.31,0,96.61-37.94t38.31-95.83Q1639.7,330.11,1601.74,291.72Zm-28.59,167.19q-26.49,28.77-66.06,28.77-39.4,0-65.64-28.21t-26.21-70.69q0-43.78,26.13-72t66.74-28.2q38.55,0,65,28.47t26.47,70.24Q1599.62,430.15,1573.15,458.91Z"/><path class="cls-1" d="M645.09,458.91Q615,487.68,570,487.68q-44.79,0-74.58-28.21t-29.8-70.69q0-43.78,29.7-72t75.83-28.2q43.83,0,73.92,28.47l.63.65V275.23q-47.41-21.54-86.18-21.55-56.22,0-94.55,39t-38.33,96.11a138.22,138.22,0,0,0,16.74,66.88q16.75,30.94,45.47,48.55t70,17.61q50.76,0,89.53-22.49V455.75c-.1.07-.21.12-.32.19C647.08,456.93,646.1,457.94,645.09,458.91Z"/><path class="cls-1" d="M1771.31,198q-13.51-13.66-33.81-13.67T1703.92,198q-13.29,13.67-13.29,34.53,0,20.34,13.19,33.83t33,13.51q20.73,0,34.37-13.51t13.63-34.1Q1784.82,211.69,1771.31,198Z"/><path class="cls-1" d="M138.66,522.11a41.14,41.14,0,0,1-24.08-7.21A44,44,0,0,1,99,495.26H97.55l-9.89,24H70l46.62-219.84h23.74q-7.2,34.2-11.09,52.35T118.6,394.24h1.27Q133,377.58,145.8,369.73a49.75,49.75,0,0,1,26.35-7.84q19.92,0,31.08,14t11.16,38.43q0,29.52-9.67,54.6t-27,39.14A60.35,60.35,0,0,1,138.66,522.11Zm26.28-140.58q-13.56,0-27.62,13.42T115,428.72a109.77,109.77,0,0,0-8.27,41.68q0,15.54,7.85,23.8t22.67,8.27q14,0,26.07-11.44t19.43-32.57a135.8,135.8,0,0,0,7.34-44.86Q190.09,381.53,164.94,381.53Z"/><path class="cls-1" d="M242.51,364.43h23.74l10.45,77q1.41,9.75,2.76,28.76t1.34,30.58h.85q4.94-12.28,12.29-28.25t10.88-22l45.91-86.05h25.15L277.55,545.56q-13.14,24.3-26,33.77t-30.94,9.46a66.57,66.57,0,0,1-19.78-3V566.75a66.84,66.84,0,0,0,18.51,2.55,29.35,29.35,0,0,0,19.85-7.14q8.26-7.12,16-21.12L266,521.83Z"/></svg>